<?xml version="1.0" encoding="utf-8"?>
<!-- Generator: Adobe Illustrator 27.5.0, SVG Export Plug-In . SVG Version: 6.00 Build 0)  -->
<svg version="1.1"
	 id="Layer_1" shape-rendering="geometricPrecision" text-rendering="geometricPrecision" image-rendering="optimizeQuality"
	 xmlns="http://www.w3.org/2000/svg" xmlns:xlink="http://www.w3.org/1999/xlink" x="0px" y="0px" viewBox="0 0 1333.3 1333.3"
	 style="enable-background:new 0 0 1333.3 1333.3;" xml:space="preserve">
<style type="text/css">
	.st0{fill:#FFFFFF;}
</style>
<path class="st0" d="M1175.7,0H157.6C70.6,0,0,70.6,0,157.6v1018.1c0,87,70.6,157.6,157.6,157.6h1018.1c87,0,157.6-70.6,157.6-157.6
	V157.6C1333.3,70.6,1262.8,0,1175.7,0z M733.1,1059.4H422.5L297.9,314.3L570,288.5l66.2,530.2c61.5-100.3,137.5-257.9,137.5-365.3
	c0-58.8-10.1-98.8-25.8-131.8l247.4-50.2h0c28.7,47.3,41.6,96.1,41.6,157.6C1036.8,625.3,869.2,880.4,733.1,1059.4z"/>
</svg>
